<svg xmlns="http://www.w3.org/2000/svg" width="508.3" height="102.088" class="css-1j8o68f" viewBox="-31.727 -39.798 382.668 131.629">
  <path d="M-32.988-41.456h385.411V93.238H-32.988V-41.456Z" style="stroke:#000;fill-rule:nonzero;paint-order:fill;fill:#64b65b;stroke-opacity:0"/>
  <path fill="#405082" d="m61.624 63.758-1.273-3.613h-7.357l-1.273 3.613H48l6.448-17.515h4.449l6.448 17.515h-3.72zm-7.564-6.655h5.224l-2.606-7.43zm21.2-10.86c3.43 0 5.563 2.545 5.563 5.66 0 3.188-2.133 5.576-5.563 5.576h-3.65v6.279h-3.636V46.243h7.285zm-.606 8.193c1.818 0 2.666-1.006 2.666-2.581 0-1.516-.848-2.57-2.666-2.57H71.61v5.151h3.043zm9.224 9.322V46.243h3.636v17.515h-3.636zm7.66-4.994v-2.921h8.691v2.92h-8.69zm23.054-9.321h-6.666v3.975h5.757v3.164h-5.757v7.176h-3.661V46.243h10.327v3.2zm3.104 14.315V46.243h3.636v17.515h-3.636zm17.406 0-4.558-7.71h-1.054v7.71h-3.637V46.243h6.352c3.963 0 5.636 2.34 5.636 5.236 0 2.352-1.333 3.88-3.71 4.388l5.274 7.891h-4.303zM129.49 49.26v4.182h2.145c1.94 0 2.727-.824 2.727-2.085 0-1.248-.787-2.097-2.727-2.097h-2.145zM147.89 64c-3.758 0-6.691-1.806-7.225-5.09l3.758-.862c.242 1.964 1.685 2.982 3.612 2.982 1.479 0 2.655-.654 2.642-2.133-.012-1.649-1.951-2.17-4.084-2.824-2.57-.8-5.322-1.746-5.322-4.97 0-3.26 2.667-5.103 6.182-5.103 3.08 0 6.182 1.249 6.885 4.606l-3.515.873c-.327-1.746-1.503-2.51-3.152-2.51-1.466 0-2.715.607-2.715 2.05 0 1.345 1.722 1.793 3.71 2.387 2.642.8 5.769 1.818 5.769 5.309 0 3.721-3.115 5.285-6.545 5.285zm20.06-17.757v3.2h-4.157v14.315h-3.6V49.443h-4.182v-3.2h11.94zm19.527 3.2h-6.667v3.975h5.757v3.164h-5.757v7.176h-3.66V46.243h10.327v3.2zM198.337 64c-5.15 0-8.957-3.515-8.957-9.006 0-5.503 3.806-8.994 8.958-8.994 5.139 0 8.945 3.491 8.945 8.994 0 5.49-3.806 9.006-8.945 9.006zm0-3.333c3.019 0 5.334-2.121 5.334-5.673 0-3.54-2.315-5.648-5.333-5.648s-5.334 2.109-5.334 5.648c0 3.552 2.315 5.673 5.334 5.673zm21.54 3.09-4.558-7.708h-1.054v7.709h-3.637V46.243h6.352c3.963 0 5.636 2.34 5.636 5.236 0 2.352-1.333 3.88-3.709 4.388l5.273 7.891h-4.303zm-5.612-14.497v4.182h2.145c1.94 0 2.728-.824 2.728-2.085 0-1.248-.788-2.097-2.728-2.097h-2.145zm30.752 14.498-1.273-3.613h-7.358l-1.272 3.613h-3.721l6.448-17.515h4.448l6.449 17.515h-3.721zm-7.564-6.655h5.224l-2.606-7.43zm17.55 3.442h5.492v3.213h-9.127V46.243h3.636v14.302zm11.904 0h5.49v3.213h-9.126V46.243h3.636v14.302z"/>
  <path fill="#fff" d="M17.915 36C7.612 36 0 28.994 0 17.988S7.612 0 17.915 0c7.806 0 14.06 4 16.558 10.642l-6.788 2.473c-1.552-4.073-5.26-6.424-9.77-6.424-6.036 0-10.667 4.218-10.667 11.297s4.63 11.32 10.667 11.32c4.51 0 8.218-2.375 9.77-6.448l6.788 2.473C31.976 31.975 25.72 36 17.915 36zm38.036 0c-10.303 0-17.915-7.03-17.915-18.012C38.036 6.982 45.648 0 55.951 0 66.23 0 73.842 6.982 73.842 17.988 73.842 28.97 66.23 36 55.952 36zm0-6.667c6.037 0 10.667-4.242 10.667-11.345 0-7.079-4.63-11.297-10.667-11.297S45.285 10.91 45.285 17.988c0 7.103 4.63 11.345 10.666 11.345zM104.461.486h7.248v35.03h-8.412L87.782 10.472v25.042h-7.249V.485h8.315l15.613 24.897V.486zm40.242 0h7.248v35.03h-8.412l-15.515-25.043v25.042h-7.248V.485h8.315l15.612 24.897V.486z"/>
  <path xmlns="http://www.w3.org/2000/svg" fill="#fff" d="M158.2 7.2a1.2 1.2 0 0 0 1.2-1.2V2.4h3.6a1.2 1.2 0 1 0 0-2.4h-4.8a1.2 1.2 0 0 0-1.2 1.2V6a1.2 1.2 0 0 0 1.2 1.2zM191.8 0H187a1.2 1.2 0 1 0 0 2.4h3.6V6a1.2 1.2 0 1 0 2.4 0V1.2a1.2 1.2 0 0 0-1.2-1.2zM163 33.6h-3.6V30a1.2 1.2 0 1 0-2.4 0v4.8a1.2 1.2 0 0 0 1.2 1.2h4.8a1.2 1.2 0 1 0 0-2.4zm28.8-4.8a1.2 1.2 0 0 0-1.2 1.2v3.6H187a1.2 1.2 0 1 0 0 2.4h4.8a1.2 1.2 0 0 0 1.2-1.2V30a1.2 1.2 0 0 0-1.2-1.2zM161.8 6a1.2 1.2 0 0 0 1.2 1.2h16.8a1.2 1.2 0 1 0 0-2.4H163a1.2 1.2 0 0 0-1.2 1.2zM187 16.8h-24a1.2 1.2 0 1 0 0 2.4h24a1.2 1.2 0 1 0 0-2.4zm-24 14.4h24a1.2 1.2 0 1 0 0-2.4h-24a1.2 1.2 0 1 0 0 2.4zm0-6h15.6a1.2 1.2 0 1 0 0-2.4H163a1.2 1.2 0 1 0 0 2.4zm24-14.4h-24a1.2 1.2 0 1 0 0 2.4h24a1.2 1.2 0 1 0 0-2.4z"/>
  <path fill="#fff" d="M231.879 1.556a3.368 3.368 0 0 1 0 4.796l-11.666 11.665 11.666 11.666a3.236 3.236 0 0 1 0 4.75c-1.245 1.244-3.458 1.429-4.703.091L212.65 20l-11.665 11.666c-.231.23-.231.553 0 .784s.553.23.783 0l9.914-9.868c.553-.553 1.43-.553 1.983 0s.553 1.43 0 1.983l-9.96 9.96c-1.337 1.244-3.458 1.244-4.703-.093-1.337-1.245-1.337-3.412 0-4.749l11.666-11.666-11.666-11.665a3.368 3.368 0 0 1 0-4.796c1.245-1.29 3.504-1.29 4.75 0l9.774 9.775c.554.554.554 1.43 0 1.983s-1.429.553-1.982 0l-9.776-9.775c-.23-.23-.599-.23-.783 0a.584.584 0 0 0 0 .83l11.665 11.666 14.48-14.479c1.245-1.29 3.504-1.29 4.749 0zm-1.937 1.983c-.23-.23-.6-.23-.876.046l-14.432 14.432 14.432 14.433c.23.23.6.23.83 0 .185-.185.23-.554 0-.784l-12.68-12.634a1.392 1.392 0 0 1 0-1.983L229.85 4.415c.323-.323.323-.646.092-.876zM240.04.588c1.845 0 3.366 1.522 3.366 3.412v30.063c0 .738-.6 1.384-1.383 1.384s-1.43-.646-1.43-1.384V4c0-.323-.23-.6-.553-.6s-.6.277-.6.6v14.017c0 .784-.645 1.384-1.428 1.384-.738 0-1.384-.6-1.384-1.384V4A3.404 3.404 0 0 1 240.04.588zm24.853 3.458c3.735 0 7.24 1.43 9.868 4.058a14.027 14.027 0 0 1 4.057 9.913c0 .738-.599 1.384-1.383 1.384-.738 0-1.383-.646-1.383-1.384a11.12 11.12 0 0 0-3.274-7.93c-2.12-2.075-4.934-3.274-7.885-3.274-2.997 0-5.81 1.199-7.93 3.273a11.123 11.123 0 0 0-3.274 7.931c0 1.845-1.522 3.412-3.412 3.412s-3.412-1.567-3.412-3.412c0-4.841 1.89-9.36 5.256-12.726 7.055-7.055 18.444-7.055 25.499 0 3.412 3.366 5.256 7.885 5.256 12.726 0 4.796-1.844 9.314-5.256 12.727S269.689 36 264.893 36c-.783 0-1.429-.6-1.429-1.383s.646-1.384 1.43-1.384c4.057 0 7.884-1.613 10.743-4.472s4.473-6.686 4.473-10.744-1.614-7.884-4.473-10.79c-5.948-5.901-15.585-5.901-21.533 0a15.286 15.286 0 0 0-4.427 10.79c0 .415.23.692.646.692.369 0 .6-.23.6-.692 0-3.735 1.429-7.239 4.057-9.913 2.628-2.628 6.178-4.058 9.913-4.058zm25.683-2.351c3.735-2.168 8.577-.923 11.02 2.858L318.15 30.33c.968 1.613.415 3.78-1.199 4.703-1.43.784-3.458.645-4.611-1.245L295.879 8.242c-.323-.507-1.107-1.153-1.89-.692-.37.231-.646.646-.646 1.107v25.406c0 .738-.646 1.384-1.383 1.384-.784 0-1.43-.646-1.43-1.384V8.657a4.07 4.07 0 0 1 2.075-3.55c2.167-1.245 4.519-.093 5.626 1.613l16.46 25.545c.185.323.462.6.877.369s.322-.646.138-.876L299.245 6.075c-1.614-2.536-4.75-3.412-7.24-1.983-1.613.969-2.627 2.675-2.627 4.519v25.452c0 .738-.646 1.384-1.43 1.384-.738 0-1.383-.646-1.383-1.384V8.795c-.046-2.905 1.475-5.671 4.011-7.1zM315.245.634c1.89 0 3.412 1.522 3.412 3.366v19.781c0 .784-.645 1.383-1.383 1.383-.784 0-1.43-.6-1.43-1.383V4c0-.323-.276-.6-.6-.6s-.552.277-.552.6v13.233c0 .784-.646 1.43-1.43 1.43s-1.383-.646-1.383-1.43V4a3.385 3.385 0 0 1 3.366-3.366z"/>
</svg>
